<svg xmlns="http://www.w3.org/2000/svg" version="1.1" xmlns:xlink="http://www.w3.org/1999/xlink" xmlns:svgjs="http://svgjs.dev/svgjs" width="1000" height="272" viewBox="0 0 1000 272"><g transform="matrix(1,0,0,1,-0.6060602391146972,0.6025876047286829)"><svg viewBox="0 0 396 108" data-background-color="#ffffff" preserveAspectRatio="xMidYMid meet" height="272" width="1000" xmlns="http://www.w3.org/2000/svg" xmlns:xlink="http://www.w3.org/1999/xlink"><g id="tight-bounds" transform="matrix(1,0,0,1,0.24000014531060287,-0.2392627254069737)"><svg viewBox="0 0 395.52 108.47852080123266" height="108.47852080123266" width="395.52"><g><svg viewBox="0 0 395.52 108.47852080123266" height="108.47852080123266" width="395.52"><g><svg viewBox="0 0 395.52 108.47852080123266" height="108.47852080123266" width="395.52"><g id="textblocktransform"><svg viewBox="0 0 395.52 108.47852080123266" height="108.47852080123266" width="395.52" id="textblock"><g><svg viewBox="0 0 395.52 108.47852080123266" height="108.47852080123266" width="395.52"><g transform="matrix(1,0,0,1,0,0)"><svg width="395.52" viewBox="2.6500000953674316 -35.25 129.79000854492188 35.599998474121094" height="108.47852080123266" data-palette-color="#8abe53"><path d="M2.65-35.25L12.4-35.25 12.4-14.8Q12.4-11.95 13.73-10.4 15.05-8.85 17.75-8.85L17.75-8.85Q20.45-8.85 21.83-10.43 23.2-12 23.2-14.8L23.2-14.8 23.2-35.25 33-35.25 33-14.8Q33-9.95 30.95-6.53 28.9-3.1 25.38-1.38 21.85 0.35 17.55 0.35L17.55 0.35Q13.25 0.35 9.88-1.38 6.5-3.1 4.58-6.5 2.65-9.9 2.65-14.8L2.65-14.8 2.65-35.25ZM67.2 0L56.25 0 49.25-13 48.2-13 48.2 0 38.4 0 38.4-35.25 53.85-35.25Q58.1-35.25 61.05-33.77 64-32.3 65.5-29.73 67-27.15 67-23.95L67-23.95Q67-20.35 65.02-17.63 63.05-14.9 59.25-13.75L59.25-13.75 67.2 0ZM48.2-27.05L48.2-19.7 53.05-19.7Q55.05-19.7 56.05-20.65 57.05-21.6 57.05-23.4L57.05-23.4Q57.05-25.1 56.02-26.08 55-27.05 53.05-27.05L53.05-27.05 48.2-27.05ZM94-27.4L81.25-27.4 81.25-21.65 92.5-21.65 92.5-14.2 81.25-14.2 81.25-7.85 94-7.85 94 0 71.45 0 71.45-35.25 94-35.25 94-27.4ZM132.44 0L120.89 0 114.04-9.95 108.19 0 97.04 0 108.49-18.05 96.64-35.25 108.19-35.25 114.84-25.55 120.54-35.25 131.69-35.25 120.39-17.5 132.44 0Z" opacity="1" transform="matrix(1,0,0,1,0,0)" fill="#8abe53" class="undefined-text-0" data-fill-palette-color="primary" id="text-0"></path></svg></g></svg></g></svg></g></svg></g></svg></g><defs></defs></svg><rect width="395.52" height="108.47852080123266" fill="none" stroke="none" visibility="hidden"></rect></g></svg></g></svg>